# Wavefront Object File.
# Created by Cold Fusion HOD Editor v3.2.3
# Date: 02-01-2009; Time: 19:59:11
# 

# Mesh Part #1
g Part1
usemtl Material_0

v 3.911929 1.238418 -0.454433
vn 1 -8.041239E-09 0
vt 1.565228 -1.900825

v 3.911929 5.15937 -0.454433
vn 1 -8.041239E-09 0
vt 1.565231 -1.653096

v 3.911929 5.15937 2.957017
vn 1 -8.041239E-09 0
vt 1.780771 -1.653091

v 3.911929 1.238418 2.957017
vn 1 -8.041239E-09 0
vt 1.780768 -1.900822

v 3.31046 1.780196 -3.180937
vn 0.9765212 4.411056E-08 -0.2154214
vt 1.405194 -1.866587

v 3.31046 4.617597 -3.180937
vn 0.9765212 4.411056E-08 -0.2154214
vt 1.405196 -1.687318

v 3.911929 5.15937 -0.454433
vn 0.9765212 4.411056E-08 -0.2154214
vt 1.565231 -1.653096

v 3.911929 1.238418 -0.454433
vn 0.9765212 4.411056E-08 -0.2154214
vt 1.565228 -1.900825

v 1.821111 1.746788E-07 -2.470793
vn 1 -7.456292E-08 0
vt 1.526482 -1.981297

v 1.821111 0.7464068 -0.4544269
vn 1 -7.456292E-08 0
vt 1.65388 -1.934136

v 1.821111 0.7464068 2.957017
vn 1 -1.582106E-07 0
vt 1.869433 -1.934137

v 1.821111 1.71486E-07 2.957017
vn 1 -1.582106E-07 0
vt 1.869404 -1.981295

v 1.821111 1.71486E-07 2.957017
vn 0.9926288 -7.573187E-09 0.1211949
vt 1.869404 -1.981295

v 1.821111 0.7464068 2.957017
vn 0.9926288 -7.573187E-09 0.1211949
vt 1.869433 -1.934137

v 1.821111 5.651378 2.957017
vn 0.9926288 -7.573187E-09 0.1211949
vt 1.869845 -1.624236

v 1.821111 6.397783 2.957017
vn 0.9926288 -7.573187E-09 0.1211949
vt 1.869882 -1.577078

v 1.608165 4.467093 4.701116
vn 0.9926288 -7.573187E-09 0.1211949
vt 1.980752 -1.699198

v 1.608165 0.9127693 4.701116
vn 0.9926288 -7.573187E-09 0.1211949
vt 1.980473 -1.923764

v 1.821111 6.397783 2.957017
vn 1 1.582108E-07 0
vt 1.869882 -1.577078

v 1.821111 5.651378 2.957017
vn 1 1.582108E-07 0
vt 1.869845 -1.624236

v 1.821111 5.651378 -0.4544269
vn 1 7.456303E-08 0
vt 1.654323 -1.62418

v 1.821111 6.397783 -2.470793
vn 1 7.456303E-08 0
vt 1.52693 -1.577005

v 1.821111 1.571055 -4.555274
vn 1 9.084756E-09 0
vt 1.39478 -1.882041

v 1.821111 4.826733 -4.555274
vn 1 -9.084777E-09 0
vt 1.395227 -1.676269

v 1.821111 0.7464068 -0.4544269
vn 0.2290632 -0.9734116 0
vt 1.23388 -1.530142

v 3.911929 1.238418 -0.454433
vn 0.2290632 -0.9734116 0
vt 1.233867 -1.66579

v 3.911929 1.238418 2.957017
vn 0.2290632 -0.9734116 0
vt 1.018328 -1.665793

v 1.821111 0.7464068 2.957017
vn 0.2290632 -0.9734116 0
vt 1.018343 -1.530087

v 1.821111 0.7464068 2.957017
vn -6.081719E-08 0 1
vt 1.187554 -1.436262

v 3.911929 1.238418 2.957017
vn -6.081719E-08 0 1
vt 1.055455 -1.405174

v 3.911929 5.15937 2.957017
vn -6.081719E-08 0 1
vt 1.055458 -1.157444

v 1.821111 5.651378 2.957017
vn -6.081719E-08 0 1
vt 1.187558 -1.126362

v 1.821111 5.651378 2.957017
vn 0.2290613 0.973412 0
vt 1.018349 -1.529383

v 3.911929 5.15937 2.957017
vn 0.2290613 0.973412 0
vt 1.018324 -1.665095

v 3.911929 5.15937 -0.454433
vn 0.2290613 0.973412 0
vt 1.233864 -1.665099

v 1.821111 5.651378 -0.4544269
vn 0.2290613 0.973412 0
vt 1.233882 -1.529457

v 1.821111 1.571055 -4.555274
vn 0.2654544 -0.9406078 -0.211639
vt 1.497838 -1.541885

v 3.31046 1.780196 -3.180937
vn 0.2654544 -0.9406078 -0.211639
vt 1.411129 -1.636841

v 3.911929 1.238418 -0.454433
vn 0.2654544 -0.9406078 -0.211639
vt 1.233867 -1.66579

v 1.821111 0.7464068 -0.4544269
vn 0.2654544 -0.9406078 -0.211639
vt 1.23388 -1.530142

v 1.821111 5.651378 -0.4544269
vn 0.2654518 0.9406087 -0.211638
vt 1.233882 -1.529457

v 3.911929 5.15937 -0.454433
vn 0.2654518 0.9406087 -0.211638
vt 1.233864 -1.665099

v 3.31046 4.617597 -3.180937
vn 0.2654518 0.9406087 -0.211638
vt 1.41113 -1.63615

v 1.821111 4.826733 -4.555274
vn 0.2654518 0.9406087 -0.211638
vt 1.497836 -1.541193

v 1.821111 1.571055 -4.555274
vn 0.678161 1.872881E-08 -0.7349134
vt 1.277165 -1.879801

v 1.821111 4.826733 -4.555274
vn 0.678161 1.872881E-08 -0.7349134
vt 1.277165 -1.674104

v 3.31046 4.617597 -3.180937
vn 0.678161 1.872881E-08 -0.7349134
vt 1.405196 -1.687318

v 3.31046 1.780196 -3.180937
vn 0.678161 1.872881E-08 -0.7349134
vt 1.405194 -1.866587

v -1.608165 4.467093 4.701116
vn 7.269053E-08 0 1
vt 1.243538 -1.170217

v -1.608165 0.9127693 4.701116
vn 7.269053E-08 0 1
vt 1.243538 -1.39478

v 1.608165 0.9127693 4.701116
vn 7.269053E-08 0 1
vt 1.446749 -1.394783

v 1.608165 4.467093 4.701116
vn 7.269053E-08 0 1
vt 1.446749 -1.170216

v -1.82111 6.397783 -2.470793
vn 0 1 0
vt 1.629198 -1.518071

v -1.82111 6.397783 2.957017
vn 0 1 0
vt 1.972138 -1.518071

v 1.821111 6.397783 2.957017
vn 0 1 0
vt 1.972138 -1.287951

v 1.821111 6.397783 -2.470793
vn 0 1 0
vt 1.629208 -1.287951

v -1.82111 1.711501E-07 2.957017
vn 9.221082E-11 -1 0
vt 1.978575 -1.025285

v -1.82111 1.74343E-07 -2.470793
vn 9.221082E-11 -1 0
vt 1.63564 -1.025285

v 1.821111 1.746788E-07 -2.470793
vn 9.221082E-11 -1 0
vt 1.635644 -1.255404

v 1.821111 1.71486E-07 2.957017
vn 9.221082E-11 -1 0
vt 1.978575 -1.255404

v -3.911929 1.238418 -0.4544331
vn -1 3.398407E-08 0
vt 1.565228 -1.900825

v -3.911929 1.238418 2.957017
vn -1 3.398407E-08 0
vt 1.780768 -1.900822

v -3.911929 5.15937 2.957017
vn -1 3.398407E-08 0
vt 1.780771 -1.653091

v -3.911929 5.15937 -0.4544331
vn -1 3.398407E-08 0
vt 1.565231 -1.653096

v -1.82111 4.826733 -4.555274
vn 4.715269E-09 0.7985835 -0.6018841
vt 1.464278 -1.518057

v -1.82111 6.397783 -2.470793
vn 4.715269E-09 0.7985835 -0.6018841
vt 1.629198 -1.518071

v 1.821111 6.397783 -2.470793
vn 4.715269E-09 0.7985835 -0.6018841
vt 1.629208 -1.287951

v 1.821111 4.826733 -4.555274
vn 4.715269E-09 0.7985835 -0.6018841
vt 1.464296 -1.287938

v -3.31046 1.780196 -3.180938
vn -0.9765213 2.343517E-08 -0.2154215
vt 1.405194 -1.866587

v -3.911929 1.238418 -0.4544331
vn -0.9765213 2.343517E-08 -0.2154215
vt 1.565228 -1.900825

v -3.911929 5.15937 -0.4544331
vn -0.9765213 2.343517E-08 -0.2154215
vt 1.565231 -1.653096

v -3.31046 4.617597 -3.180938
vn -0.9765213 2.343517E-08 -0.2154215
vt 1.405196 -1.687318

v -1.82111 1.74343E-07 -2.470793
vn -1 -6.751232E-08 0
vt 1.526482 -1.981297

v -1.82111 1.711501E-07 2.957017
vn -1 -6.751232E-08 0
vt 1.869404 -1.981295

v -1.82111 0.7464068 2.957017
vn -1 -6.751232E-08 0
vt 1.869433 -1.934137

v -1.82111 0.7464068 -0.454427
vn -1 -6.751232E-08 0
vt 1.65388 -1.934136

v -1.82111 1.711501E-07 2.957017
vn -0.9926288 5.949877E-10 0.1211949
vt 1.869404 -1.981295

v -1.608165 0.9127693 4.701116
vn -0.9926288 5.949877E-10 0.1211949
vt 1.980473 -1.923764

v -1.608165 4.467093 4.701116
vn -0.9926288 5.949877E-10 0.1211949
vt 1.980752 -1.699198

v -1.82111 6.397783 2.957017
vn -0.9926288 5.949877E-10 0.1211949
vt 1.869882 -1.577078

v -1.82111 5.651378 2.957017
vn -0.9926288 5.949877E-10 0.1211949
vt 1.869845 -1.624236

v -1.82111 0.7464068 2.957017
vn -0.9926288 5.949877E-10 0.1211949
vt 1.869433 -1.934137

v -1.82111 6.397783 2.957017
vn -1 8.896991E-08 0
vt 1.869882 -1.577078

v -1.82111 6.397783 -2.470793
vn -1 8.896991E-08 0
vt 1.52693 -1.577005

v -1.82111 5.651378 -0.454427
vn -1 8.896991E-08 0
vt 1.654323 -1.62418

v -1.82111 5.651378 2.957017
vn -1 8.896991E-08 0
vt 1.869845 -1.624236

v -1.82111 1.571055 -4.555274
vn -1 -7.971112E-09 0
vt 1.39478 -1.882041

v -1.82111 4.826733 -4.555274
vn -1 6.650021E-09 0
vt 1.395227 -1.676269

v -1.82111 0.7464068 -0.454427
vn -0.2290632 -0.9734116 0
vt 1.23388 -1.530142

v -1.82111 0.7464068 2.957017
vn -0.2290632 -0.9734116 0
vt 1.018343 -1.530087

v -3.911929 1.238418 2.957017
vn -0.2290632 -0.9734116 0
vt 1.018328 -1.665793

v -3.911929 1.238418 -0.4544331
vn -0.2290632 -0.9734116 0
vt 1.233867 -1.66579

v -1.82111 0.7464068 2.957017
vn -1.879359E-08 0 1
vt 1.187554 -1.436262

v -1.82111 5.651378 2.957017
vn -1.879359E-08 0 1
vt 1.187558 -1.126362

v -3.911929 5.15937 2.957017
vn -1.879359E-08 0 1
vt 1.055458 -1.157444

v -3.911929 1.238418 2.957017
vn -1.879359E-08 0 1
vt 1.055455 -1.405174

v -1.82111 5.651378 2.957017
vn -0.2290614 0.973412 0
vt 1.018349 -1.529383

v -1.82111 5.651378 -0.454427
vn -0.2290614 0.973412 0
vt 1.233882 -1.529457

v -3.911929 5.15937 -0.4544331
vn -0.2290614 0.973412 0
vt 1.233864 -1.665099

v -3.911929 5.15937 2.957017
vn -0.2290614 0.973412 0
vt 1.018324 -1.665095

v -1.82111 1.571055 -4.555274
vn -0.2654544 -0.9406078 -0.211639
vt 1.497838 -1.541885

v -1.82111 0.7464068 -0.454427
vn -0.2654544 -0.9406078 -0.211639
vt 1.23388 -1.530142

v -3.911929 1.238418 -0.4544331
vn -0.2654544 -0.9406078 -0.211639
vt 1.233867 -1.66579

v -3.31046 1.780196 -3.180938
vn -0.2654544 -0.9406078 -0.211639
vt 1.411129 -1.636841

v -1.82111 5.651378 -0.454427
vn -0.2654517 0.9406087 -0.211638
vt 1.233882 -1.529457

v -1.82111 4.826733 -4.555274
vn -0.2654517 0.9406087 -0.211638
vt 1.497836 -1.541193

v -3.31046 4.617597 -3.180938
vn -0.2654517 0.9406087 -0.211638
vt 1.41113 -1.63615

v -3.911929 5.15937 -0.4544331
vn -0.2654517 0.9406087 -0.211638
vt 1.233864 -1.665099

v -1.608165 0.9127693 4.701116
vn -2.056181E-08 -0.8859999 0.4636855
vt 1.243538 -1.39478

v -1.82111 1.711501E-07 2.957017
vn -2.056181E-08 -0.8859999 0.4636855
vt 1.230081 -1.519152

v 1.821111 1.71486E-07 2.957017
vn -2.056181E-08 -0.8859999 0.4636855
vt 1.4602 -1.519156

v 1.608165 0.9127693 4.701116
vn -2.056181E-08 -0.8859999 0.4636855
vt 1.446749 -1.394783

v -1.82111 6.397783 2.957017
vn -1.074196E-08 0.6703392 0.7420548
vt 1.230083 -1.005831

v -1.608165 4.467093 4.701116
vn -1.074196E-08 0.6703392 0.7420548
vt 1.243538 -1.170217

v 1.608165 4.467093 4.701116
vn -1.074196E-08 0.6703392 0.7420548
vt 1.446749 -1.170216

v 1.821111 6.397783 2.957017
vn -1.074196E-08 0.6703392 0.7420548
vt 1.460201 -1.005831

v -1.82111 1.571055 -4.555274
vn 1.665276E-08 0 -1
vt 1.040515 -1.969229

v -1.82111 4.826733 -4.555274
vn 1.665276E-08 0 -1
vt 1.246211 -1.969229

v 1.821111 4.826733 -4.555274
vn 1.665276E-08 0 -1
vt 1.246211 -1.739111

v 1.821111 1.571055 -4.555274
vn 1.665276E-08 0 -1
vt 1.040515 -1.739111

v -1.82111 1.74343E-07 -2.470793
vn 5.441689E-09 -0.7985827 -0.6018851
vt 1.63564 -1.025285

v -1.82111 1.571055 -4.555274
vn 5.441689E-09 -0.7985827 -0.6018851
vt 1.470721 -1.02529

v 1.821111 1.571055 -4.555274
vn 5.441689E-09 -0.7985827 -0.6018851
vt 1.470728 -1.255409

v 1.821111 1.746788E-07 -2.470793
vn 5.441689E-09 -0.7985827 -0.6018851
vt 1.635644 -1.255404

v -1.82111 1.571055 -4.555274
vn -0.6781608 1.526311E-08 -0.7349136
vt 1.277165 -1.879801

v -3.31046 1.780196 -3.180938
vn -0.6781608 1.526311E-08 -0.7349136
vt 1.405194 -1.866587

v -3.31046 4.617597 -3.180938
vn -0.6781608 1.526311E-08 -0.7349136
vt 1.405196 -1.687318

v -1.82111 4.826733 -4.555274
vn -0.6781608 1.526311E-08 -0.7349136
vt 1.277165 -1.674104
# 128 vertice(s) in part #1.

f 1/1/1 2/2/2 3/3/3
f 1/1/1 3/3/3 4/4/4
f 5/5/5 6/6/6 7/7/7
f 5/5/5 7/7/7 8/8/8
f 9/9/9 10/10/10 11/11/11
f 9/9/9 11/11/11 12/12/12
f 13/13/13 14/14/14 15/15/15
f 13/13/13 15/15/15 16/16/16
f 13/13/13 16/16/16 17/17/17
f 13/13/13 17/17/17 18/18/18
f 19/19/19 20/20/20 21/21/21
f 19/19/19 21/21/21 22/22/22
f 23/23/23 10/10/10 9/9/9
f 22/22/22 21/21/21 24/24/24
f 25/25/25 26/26/26 27/27/27
f 25/25/25 27/27/27 28/28/28
f 29/29/29 30/30/30 31/31/31
f 29/29/29 31/31/31 32/32/32
f 33/33/33 34/34/34 35/35/35
f 33/33/33 35/35/35 36/36/36
f 37/37/37 38/38/38 39/39/39
f 37/37/37 39/39/39 40/40/40
f 41/41/41 42/42/42 43/43/43
f 41/41/41 43/43/43 44/44/44
f 45/45/45 46/46/46 47/47/47
f 45/45/45 47/47/47 48/48/48
f 49/49/49 50/50/50 51/51/51
f 49/49/49 51/51/51 52/52/52
f 53/53/53 54/54/54 55/55/55
f 53/53/53 55/55/55 56/56/56
f 57/57/57 58/58/58 59/59/59
f 57/57/57 59/59/59 60/60/60
f 61/61/61 62/62/62 63/63/63
f 61/61/61 63/63/63 64/64/64
f 65/65/65 66/66/66 67/67/67
f 65/65/65 67/67/67 68/68/68
f 69/69/69 70/70/70 71/71/71
f 69/69/69 71/71/71 72/72/72
f 73/73/73 74/74/74 75/75/75
f 73/73/73 75/75/75 76/76/76
f 77/77/77 78/78/78 79/79/79
f 77/77/77 79/79/79 80/80/80
f 77/77/77 80/80/80 81/81/81
f 77/77/77 81/81/81 82/82/82
f 83/83/83 84/84/84 85/85/85
f 83/83/83 85/85/85 86/86/86
f 73/73/73 76/76/76 87/87/87
f 84/84/84 88/88/88 85/85/85
f 89/89/89 90/90/90 91/91/91
f 89/89/89 91/91/91 92/92/92
f 93/93/93 94/94/94 95/95/95
f 93/93/93 95/95/95 96/96/96
f 97/97/97 98/98/98 99/99/99
f 97/97/97 99/99/99 100/100/100
f 101/101/101 102/102/102 103/103/103
f 101/101/101 103/103/103 104/104/104
f 105/105/105 106/106/106 107/107/107
f 105/105/105 107/107/107 108/108/108
f 109/109/109 110/110/110 111/111/111
f 109/109/109 111/111/111 112/112/112
f 113/113/113 114/114/114 115/115/115
f 113/113/113 115/115/115 116/116/116
f 117/117/117 118/118/118 119/119/119
f 117/117/117 119/119/119 120/120/120
f 121/121/121 122/122/122 123/123/123
f 121/121/121 123/123/123 124/124/124
f 125/125/125 126/126/126 127/127/127
f 125/125/125 127/127/127 128/128/128
# 68 listed triangle(s).
# 1  Mesh part(s).

# EOF
