# Wavefront Object File.
# Created by Cold Fusion HOD Editor v3.2.3
# Date: 02-01-2009; Time: 19:59:49
# 

# Mesh Part #1
g Part1
usemtl Material_1

v 3.911935 2.849897E-07 4.701113
vn 1 -5.360328E-09 0
vt 0.5468845 8.353174E-02

v 3.911935 1.725334E-07 -4.555286
vn 1 -5.360328E-09 0
vt 0.5851386 8.353174E-02

v 3.911935 6.397784 -4.555286
vn 1 -5.360328E-09 0
vt 0.5851386 0.1099719

v 3.911935 6.397783 4.701113
vn 1 -5.360328E-09 0
vt 0.5468845 0.1099719

v -3.911926 1.325445E-07 -4.555276
vn -1 -3.069398E-08 0
vt 0.5851386 8.353174E-02

v -3.911926 2.450007E-07 4.701114
vn -1 -3.069398E-08 0
vt 0.5468845 8.353174E-02

v -3.911926 6.397784 4.701114
vn -1 -3.069398E-08 0
vt 0.5468845 0.1099719

v -3.911926 6.397784 -4.555276
vn -1 -3.069398E-08 0
vt 0.5851386 0.1099719

v -3.911926 6.397784 4.701114
vn 6.710003E-08 0 1
vt 0.5397532 0.2137746

v -3.911926 2.450007E-07 4.701114
vn 6.710003E-08 0 1
vt 0.5397532 0.179632

v 3.911935 2.849897E-07 4.701113
vn 6.710003E-08 0 1
vt 0.5815061 0.179632

v 3.911935 6.397783 4.701113
vn 6.710003E-08 0 1
vt 0.5815061 0.2137746

v 3.911935 6.397784 -4.555286
vn 6.094656E-08 1 3.401156E-08
vt 0.5838607 8.254313E-02

v -3.911926 6.397784 -4.555276
vn 6.094656E-08 1 3.401156E-08
vt 0.5838607 0.1116436

v -3.911926 6.397784 4.701114
vn 6.094656E-08 1 3.401156E-08
vt 0.549432 0.1116436

v 3.911935 6.397783 4.701113
vn 6.094656E-08 1 3.401156E-08
vt 0.549432 8.254313E-02

v -3.911926 2.450007E-07 4.701114
vn 5.111156E-09 -1 1.214903E-08
vt 0.549432 0.1116436

v -3.911926 1.325445E-07 -4.555276
vn 5.111156E-09 -1 1.214903E-08
vt 0.5838607 0.1116436

v 3.911935 1.725334E-07 -4.555286
vn 5.111156E-09 -1 1.214903E-08
vt 0.5838607 8.254313E-02

v 3.911935 2.849897E-07 4.701113
vn 5.111156E-09 -1 1.214903E-08
vt 0.549432 8.254313E-02

v -3.911926 1.325445E-07 -4.555276
vn -1.290569E-06 0 -1
vt 0.5397532 0.179632

v -3.911926 6.397784 -4.555276
vn -1.290569E-06 0 -1
vt 0.5397532 0.2137746

v 3.911935 6.397784 -4.555286
vn -1.290569E-06 0 -1
vt 0.5815061 0.2137746

v 3.911935 1.725334E-07 -4.555286
vn -1.290569E-06 0 -1
vt 0.5815061 0.179632
# 24 vertice(s) in part #1.

f 1/1/1 2/2/2 3/3/3
f 1/1/1 3/3/3 4/4/4
f 5/5/5 6/6/6 7/7/7
f 5/5/5 7/7/7 8/8/8
f 9/9/9 10/10/10 11/11/11
f 9/9/9 11/11/11 12/12/12
f 13/13/13 14/14/14 15/15/15
f 13/13/13 15/15/15 16/16/16
f 17/17/17 18/18/18 19/19/19
f 17/17/17 19/19/19 20/20/20
f 21/21/21 22/22/22 23/23/23
f 21/21/21 23/23/23 24/24/24
# 12 listed triangle(s).
# 1  Mesh part(s).

# EOF
