# Wavefront Object File.
# Created by Cold Fusion HOD Editor v3.2.3
# Date: 06-17-2009; Time: 03:07:39
# 

# Mesh Part #1
g Part1
usemtl Material_-1

v -18.48029 9.611618 0.4018493
vn 0 0 -1

v 18.48029 9.611618 0.4018493
vn 0 0 -1

v 52.86568 3.610671 0.4018493
vn 0 0 -1

v 48.16395 -4.174911 0.4018493
vn 0 0 -1

v -48.16395 -4.174911 0.4018493
vn 0 0 -1

v -52.86568 3.610671 0.4018493
vn 0 0 -1
# 6 vertice(s) in part #1.

f 1/1/1 2/2/2 3/3/3
f 1/1/1 3/3/3 4/4/4
f 1/1/1 4/4/4 5/5/5
f 1/1/1 5/5/5 6/6/6
# 4 listed triangle(s).
# 1  Mesh part(s).

# EOF
