# Wavefront Object File.
# Created by Cold Fusion HOD Editor v3.2.3
# Date: 06-17-2009; Time: 03:15:54
# 

# Mesh Part #1
g Part1
usemtl Material_2

v 64.03391 9.313342 -57.76471
vn 0.8709684 0.3918201 -0.2964641
vt 0.1160714 0.8285714

v 68.34798 -0.3790547 -52.54017
vn 0.9949396 -1.708284E-07 -0.1004744
vt 0.4642857 0.9142857

v 63.48642 -0.3790551 -64.65961
vn 0.8945488 5.117919E-07 -0.4469704
vt 0.2752105 0.843531

v 64.03391 -10.07145 -57.76471
vn 0.8709682 -0.3918207 -0.2964641
vt 0.3785715 0.8285714

v 65.27594 -9.666307 -43.37721
vn 0.8667541 -0.4285475 0.2551164
vt 0.4906468 0.8236198

v 65.70665 -0.3790545 -35.85223
vn 0.8816645 2.13213E-07 0.4718768
vt 0.6223905 0.8169905

v 65.27594 8.908198 -43.37721
vn 0.8667542 0.4285474 0.2551164
vt 0.7325886 0.8236198

v 64.03391 9.313342 -57.76471
vn 0.8709684 0.3918201 -0.2964641
vt 0.8285715 0.8285714

v 53.26077 16.69372 -61.84956
vn 0.5511902 0.7795104 -0.2975782
vt 0 0.725

v 59.04082 7.238725 -69.58813
vn 0.7806281 0.3027557 -0.546771
vt 0.075 0.8

v 49.8313 11.51894 -75.27826
vn 0.5272049 0.5447414 -0.6521593
vt 5.769629E-02 0.7241142

v 45.96376 -0.3790556 -85.43214
vn 0.534161 -1.062317E-07 -0.8453828
vt 0.15 0.7218328

v 56.39507 -0.3790553 -76.21252
vn 0.763509 8.729615E-07 -0.6457973
vt 0.15 0.8

v 59.04082 -7.996835 -69.58813
vn 0.7806284 -0.3027551 -0.5467712
vt 0.25 0.8

v 49.8313 -12.27705 -75.27826
vn 0.5272048 -0.5447415 -0.6521593
vt 0.2666366 0.7241142

v 53.26077 -17.45183 -61.84956
vn 0.5511897 -0.7795109 -0.2975783
vt 0.35 0.725

v 54.92952 -18.41131 -46.33134
vn 0.5553166 -0.8314848 1.601489E-02
vt 0.4314449 0.723274

v 55.61897 -16.5865 -33.56221
vn 0.6487405 -0.5875335 0.4836737
vt 0.5125 0.725

v 55.87962 -0.3790544 -27.4079
vn 0.569612 2.337733E-07 0.8219137
vt 0.6092467 0.723847

v 55.87962 -0.3790544 -27.4079
vn 0.569612 2.337733E-07 0.8219137
vt 0.7315067 0.7204435

v 55.61897 15.8284 -33.56221
vn 0.6487405 0.5875335 0.4836737
vt 0.7875001 0.725

v 54.92953 17.6532 -46.33134
vn 0.5553173 0.8314844 1.601489E-02
vt 0.8685551 0.723274

v 37.4171 20.83879 -63.95367
vn 0.256 0.9227712 -0.2880234
vt 0 0.625

v 33.87292 15.40821 -79.68329
vn 0.2609215 0.6704056 -0.6946052
vt 5.013023E-02 0.6235716

v 30.60556 -0.3790559 -91.78364
vn 0.2715903 -2.545656E-07 -0.962413
vt 0.2 0.625

v 33.87292 -16.16632 -79.68329
vn 0.2609214 -0.6704057 -0.6946051
vt 0.2748047 0.6235716

v 37.4171 -21.5969 -63.95367
vn 0.2560007 -0.922771 -0.2880234
vt 0.35 0.625

v 39.28032 -22.62825 -45.76066
vn 0.2413342 -0.9691806 4.946531E-02
vt 0.4248074 0.6235077

v 40.40321 -20.13933 -30.64935
vn 0.2880692 -0.7896453 0.5417348
vt 0.5 0.625

v 40.43415 -15.28052 -24.15471
vn 0.2513445 -0.308612 0.9173791
vt 0.5495406 0.6225463

v 40.90301 -0.3790542 -22.50353
vn 0.1933826 -2.120832E-08 0.9811234
vt 0.7 0.625

v 40.43415 14.52241 -24.15471
vn 0.2513446 0.3086119 0.9173793
vt 0.7504594 0.6225463

v 40.40321 19.38122 -30.64935
vn 0.2880692 0.7896451 0.5417349
vt 0.8000001 0.625

v 39.28032 21.87014 -45.76066
vn 0.2413349 0.9691803 0.0494653
vt 0.8751926 0.6235077

v 17.00639 23.16364 -64.50681
vn 9.991336E-02 0.9592969 -0.2641339
vt 0 0.55

v 15.06406 17.46554 -80.84048
vn 9.687676E-02 0.7119386 -0.6955273
vt 4.735873E-02 0.5489794

v 13.17599 -0.3790562 -94.46658
vn 9.897311E-02 -8.481684E-08 -0.9950902
vt 0.15 0.5494387

v 15.06406 -18.22365 -80.84048
vn 9.687677E-02 -0.7119386 -0.6955274
vt 0.2789619 0.5489794

v 17.00639 -23.92175 -64.50681
vn 9.991337E-02 -0.9592969 -0.2641339
vt 0.35 0.55

v 18.02251 -24.90834 -44.94281
vn 9.650282E-02 -0.9925437 7.445941E-02
vt 0.426259 0.5492829

v 18.70278 -22.1054 -29.09146
vn 8.859646E-02 -0.850525 0.5184188
vt 0.5 0.55

v 18.60872 -16.42658 -22.4871
vn 6.440685E-02 -0.3786149 0.9233106
vt 0.5498729 0.5487777

v 18.72983 -0.3790543 -20.84592
vn 0.0470541 4.240576E-08 0.9988923
vt 0.65 0.5495261

v 18.60872 15.66847 -22.4871
vn 6.440685E-02 0.3786149 0.9233106
vt 0.7501271 0.5487777

v 18.70278 21.34729 -29.09146
vn 8.859648E-02 0.8505249 0.5184188
vt 0.8000001 0.55

v 18.02251 24.15023 -44.94281
vn 9.650282E-02 0.9925437 7.445941E-02
vt 0.873741 0.549283

v 53.26077 16.69372 -61.84956
vn 0.5511902 0.7795104 -0.2975782
vt 0.9500001 0.725

v 30.60556 -0.3790559 -91.78364
vn 0.2715903 -2.545656E-07 -0.962413
vt 0.125 0.6243627

v 40.90301 -0.3790542 -22.50353
vn 0.1933826 -2.120832E-08 0.9811234
vt 0.625 0.6254027

v 37.4171 20.83879 -63.95367
vn 0.256 0.9227712 -0.2880234
vt 0.9500001 0.625

v -0.5952666 -0.3790562 -95.05862
vn 0 -1.696194E-07 -1
vt 0.15 0.5

v -0.5952666 17.73391 -81.6325
vn 0 0.71824 -0.6957955
vt 0.05 0.5

v -0.5952673 23.79682 -64.81399
vn 0 0.965696 -0.259675
vt 0 0.5

v -0.5952666 -24.55493 -64.81399
vn 0 -0.965696 -0.259675
vt 0.35 0.5

v -0.5952666 -18.49202 -81.6325
vn 0 -0.7182399 -0.6957955
vt 0.275 0.5

v -0.5952666 -22.7444 -28.85944
vn 0 -0.8465971 0.5322343
vt 0.5 0.5

v -0.5952673 -25.63675 -45.03127
vn 0 -0.9966702 8.153758E-02
vt 0.425 0.5

v -0.5952666 -0.3790544 -20.54505
vn 0 1.908218E-07 1
vt 0.65 0.5

v -0.5952673 -16.88041 -22.16727
vn 0 -0.370394 0.9288747
vt 0.55 0.5

v -0.5952666 21.98629 -28.85944
vn 0 0.8465971 0.5322341
vt 0.8000001 0.5

v -0.5952673 16.1223 -22.16727
vn 0 0.3703943 0.9288746
vt 0.7500001 0.5

v 17.00639 23.16364 -64.50681
vn 9.991336E-02 0.9592969 -0.2641339
vt 0.9500001 0.55

v -0.5952673 23.79682 -64.81399
vn 0 0.965696 -0.259675
vt 0.9500001 0.5

v -0.5952673 24.87864 -45.03127
vn 0 0.9966702 8.153758E-02
vt 0.8750001 0.5

v -65.22445 9.313343 -57.76476
vn -0.8709685 0.39182 -0.2964642
vt 0.1160714 0.8285714

v -64.67696 -0.3790555 -64.65961
vn -0.8945488 -5.117919E-07 -0.4469704
vt 0.2752105 0.843531

v -69.53852 -0.3790543 -52.54017
vn -0.9949396 -4.057175E-07 -0.1004744
vt 0.4642857 0.9142857

v -65.22445 -10.07145 -57.76471
vn -0.8709683 -0.3918206 -0.2964641
vt 0.3785715 0.8285714

v -66.46648 -9.666307 -43.37721
vn -0.8667542 -0.4285472 0.2551164
vt 0.4906468 0.8236198

v -66.89719 -0.3790543 -35.85223
vn -0.8816645 4.264259E-08 0.4718768
vt 0.6223905 0.8169905

v -66.46648 8.908198 -43.37721
vn -0.8667542 0.4285473 0.2551164
vt 0.7325886 0.8236198

v -65.22445 9.313343 -57.76476
vn -0.8709685 0.39182 -0.2964642
vt 0.8285715 0.8285714

v -54.4513 16.69372 -61.84956
vn -0.5511903 0.7795104 -0.2975783
vt 0 0.725

v -51.02183 11.51894 -75.27826
vn -0.527205 0.5447412 -0.6521595
vt 5.769629E-02 0.7241142

v -60.23136 7.238724 -69.58813
vn -0.780628 0.3027556 -0.5467714
vt 0.075 0.8

v -47.15429 -0.3790555 -85.43214
vn -0.534161 -2.124634E-07 -0.8453828
vt 0.15 0.7218328

v -51.02184 -12.27705 -75.27826
vn -0.5272048 -0.5447415 -0.6521593
vt 0.2666366 0.7241142

v -60.23136 -7.996835 -69.58813
vn -0.7806282 -0.3027556 -0.5467711
vt 0.25 0.8

v -57.58561 -0.3790555 -76.21252
vn -0.7634981 2.767887E-07 -0.6458099
vt 0.15 0.8

v -54.4513 -17.45183 -61.84956
vn -0.5511901 -0.7795105 -0.2975782
vt 0.35 0.725

v -56.12006 -18.41131 -46.33134
vn -0.5553173 -0.8314844 1.601489E-02
vt 0.4314449 0.723274

v -56.8095 -16.58651 -33.56221
vn -0.6487405 -0.5875335 0.4836737
vt 0.5125 0.725

v -57.07015 -0.3790543 -27.4079
vn -0.5696115 -2.125213E-08 0.821914
vt 0.65 0.7227125

v -56.80951 15.8284 -33.56221
vn -0.6487406 0.5875332 0.4836738
vt 0.7875001 0.725

v -56.12007 17.6532 -46.33134
vn -0.5553173 0.8314843 1.601489E-02
vt 0.8685551 0.723274

v -38.60764 20.8388 -63.95367
vn -0.2560007 0.922771 -0.2880234
vt 0 0.625

v -35.06345 15.40821 -79.68329
vn -0.2609215 0.6704056 -0.6946052
vt 5.013023E-02 0.6235716

v -31.79609 -0.3790561 -91.78364
vn -0.2715903 -3.182071E-07 -0.962413
vt 0.15 0.6245751

v -35.06345 -16.16632 -79.68329
vn -0.2609207 -0.6704059 -0.6946051
vt 0.2748047 0.6235716

v -38.60764 -21.59691 -63.95367
vn -0.2560007 -0.922771 -0.2880234
vt 0.35 0.625

v -40.47085 -22.62825 -45.76066
vn -0.2413342 -0.9691806 4.946531E-02
vt 0.4248074 0.6235077

v -41.59374 -20.13933 -30.64935
vn -0.2880692 -0.7896453 0.5417348
vt 0.5 0.625

v -41.62468 -15.28052 -24.15471
vn -0.2513446 -0.308612 0.9173793
vt 0.5495406 0.6225463

v -42.09356 -0.379054 -22.50353
vn -0.1933826 -4.877914E-07 0.9811234
vt 0.65 0.6252685

v -41.62468 14.52241 -24.15471
vn -0.2513446 0.3086118 0.9173793
vt 0.7504594 0.6225463

v -41.59374 19.38122 -30.64935
vn -0.2880691 0.7896453 0.5417346
vt 0.8000001 0.625

v -40.47085 21.87014 -45.76066
vn -0.2413342 0.9691806 4.946531E-02
vt 0.8751926 0.6235077

v -18.19692 23.16364 -64.50681
vn -9.991337E-02 0.9592969 -0.2641339
vt 0 0.55

v -16.25459 17.46554 -80.84048
vn -9.687677E-02 0.7119386 -0.6955274
vt 4.735873E-02 0.5489794

v -14.36652 -0.3790562 -94.46658
vn -9.897244E-02 -2.544505E-07 -0.9950902
vt 0.15 0.5494387

v -16.25459 -18.22365 -80.84048
vn -9.687676E-02 -0.7119387 -0.6955273
vt 0.2789619 0.5489794

v -18.19693 -23.92175 -64.50681
vn -9.991337E-02 -0.9592969 -0.2641339
vt 0.35 0.55

v -19.21305 -24.90834 -44.94281
vn -9.650282E-02 -0.9925437 7.445941E-02
vt 0.426259 0.5492829

v -19.89331 -22.1054 -29.09146
vn -8.859646E-02 -0.850525 0.5184188
vt 0.5 0.55

v -19.79926 -16.42658 -22.4871
vn -6.440684E-02 -0.3786151 0.9233105
vt 0.5498729 0.5487777

v -19.92037 -0.3790543 -20.84592
vn -0.0470541 -3.180432E-07 0.9988923
vt 0.65 0.5495261

v -19.79925 15.66847 -22.4871
vn -6.440683E-02 0.3786156 0.9233103
vt 0.7501271 0.5487777

v -19.89331 21.34729 -29.09146
vn -8.859643E-02 0.850525 0.5184186
vt 0.8000001 0.55

v -19.21305 24.15023 -44.94281
vn -9.650282E-02 0.9925437 7.445941E-02
vt 0.873741 0.549283

v -54.4513 16.69372 -61.84956
vn -0.5511903 0.7795104 -0.2975783
vt 0.9500001 0.725

v -38.60764 20.8388 -63.95367
vn -0.2560007 0.922771 -0.2880234
vt 0.9500001 0.625

v -18.19692 23.16364 -64.50681
vn -9.991337E-02 0.9592969 -0.2641339
vt 0.9500001 0.55
# 112 vertice(s) in part #1.

f 1/1/1 2/2/2 3/3/3
f 3/3/3 2/2/2 4/4/4
f 4/4/4 2/2/2 5/5/5
f 5/5/5 2/2/2 6/6/6
f 7/7/7 2/2/2 8/8/8
f 9/9/9 1/1/1 10/10/10
f 9/9/9 10/10/10 11/11/11
f 12/12/12 13/13/13 14/14/14
f 12/12/12 14/14/14 15/15/15
f 16/16/16 4/4/4 5/5/5
f 16/16/16 5/5/5 17/17/17
f 18/18/18 5/5/5 19/19/19
f 19/19/19 5/5/5 6/6/6
f 20/20/20 7/7/7 21/21/21
f 21/21/21 7/7/7 22/22/22
f 23/23/23 9/9/9 11/11/11
f 23/23/23 11/11/11 24/24/24
f 25/25/25 12/12/12 15/15/15
f 25/25/25 15/15/15 26/26/26
f 27/27/27 16/16/16 17/17/17
f 27/27/27 17/17/17 28/28/28
f 29/29/29 18/18/18 19/19/19
f 29/29/29 19/19/19 30/30/30
f 31/31/31 20/20/20 32/32/32
f 33/33/33 21/21/21 22/22/22
f 33/33/33 22/22/22 34/34/34
f 35/35/35 23/23/23 24/24/24
f 35/35/35 24/24/24 36/36/36
f 37/37/37 25/25/25 26/26/26
f 37/37/37 26/26/26 38/38/38
f 39/39/39 27/27/27 28/28/28
f 39/39/39 28/28/28 40/40/40
f 41/41/41 29/29/29 30/30/30
f 41/41/41 30/30/30 42/42/42
f 43/43/43 31/31/31 32/32/32
f 43/43/43 32/32/32 44/44/44
f 45/45/45 33/33/33 34/34/34
f 45/45/45 34/34/34 46/46/46
f 3/3/3 13/13/13 10/10/10
f 10/10/10 1/1/1 3/3/3
f 4/4/4 14/14/14 3/3/3
f 14/14/14 13/13/13 3/3/3
f 10/10/10 13/13/13 12/12/12
f 10/10/10 12/12/12 11/11/11
f 14/14/14 4/4/4 16/16/16
f 14/14/14 16/16/16 15/15/15
f 5/5/5 18/18/18 17/17/17
f 6/6/6 7/7/7 20/20/20
f 7/7/7 8/8/8 47/47/47
f 7/7/7 47/47/47 22/22/22
f 11/11/11 12/12/12 48/48/48
f 11/11/11 48/48/48 24/24/24
f 15/15/15 16/16/16 27/27/27
f 15/15/15 27/27/27 26/26/26
f 17/17/17 18/18/18 29/29/29
f 17/17/17 29/29/29 28/28/28
f 19/19/19 49/49/49 30/30/30
f 20/20/20 21/21/21 33/33/33
f 20/20/20 33/33/33 32/32/32
f 22/22/22 47/47/47 50/50/50
f 22/22/22 50/50/50 34/34/34
f 24/24/24 48/48/48 37/37/37
f 24/24/24 37/37/37 36/36/36
f 37/37/37 51/51/51 52/52/52
f 37/37/37 52/52/52 36/36/36
f 52/52/52 53/53/53 35/35/35
f 52/52/52 35/35/35 36/36/36
f 26/26/26 27/27/27 39/39/39
f 26/26/26 39/39/39 38/38/38
f 39/39/39 54/54/54 55/55/55
f 39/39/39 55/55/55 38/38/38
f 55/55/55 51/51/51 37/37/37
f 55/55/55 37/37/37 38/38/38
f 28/28/28 29/29/29 41/41/41
f 28/28/28 41/41/41 40/40/40
f 41/41/41 56/56/56 57/57/57
f 41/41/41 57/57/57 40/40/40
f 57/57/57 54/54/54 39/39/39
f 57/57/57 39/39/39 40/40/40
f 30/30/30 49/49/49 43/43/43
f 30/30/30 43/43/43 42/42/42
f 43/43/43 58/58/58 59/59/59
f 43/43/43 59/59/59 42/42/42
f 59/59/59 56/56/56 41/41/41
f 59/59/59 41/41/41 42/42/42
f 32/32/32 33/33/33 45/45/45
f 32/32/32 45/45/45 44/44/44
f 45/45/45 60/60/60 61/61/61
f 45/45/45 61/61/61 44/44/44
f 61/61/61 58/58/58 43/43/43
f 61/61/61 43/43/43 44/44/44
f 34/34/34 50/50/50 62/62/62
f 34/34/34 62/62/62 46/46/46
f 62/62/62 63/63/63 64/64/64
f 62/62/62 64/64/64 46/46/46
f 64/64/64 60/60/60 45/45/45
f 64/64/64 45/45/45 46/46/46
f 6/6/6 2/2/2 7/7/7
f 65/65/65 66/66/66 67/67/67
f 66/66/66 68/68/68 67/67/67
f 68/68/68 69/69/69 67/67/67
f 69/69/69 70/70/70 67/67/67
f 71/71/71 72/72/72 67/67/67
f 73/73/73 74/74/74 75/75/75
f 73/73/73 75/75/75 65/65/65
f 76/76/76 77/77/77 78/78/78
f 76/76/76 78/78/78 79/79/79
f 80/80/80 81/81/81 69/69/69
f 80/80/80 69/69/69 68/68/68
f 82/82/82 83/83/83 69/69/69
f 83/83/83 70/70/70 69/69/69
f 83/83/83 84/84/84 71/71/71
f 84/84/84 85/85/85 71/71/71
f 86/86/86 87/87/87 74/74/74
f 86/86/86 74/74/74 73/73/73
f 88/88/88 89/89/89 77/77/77
f 88/88/88 77/77/77 76/76/76
f 90/90/90 91/91/91 81/81/81
f 90/90/90 81/81/81 80/80/80
f 92/92/92 93/93/93 83/83/83
f 92/92/92 83/83/83 82/82/82
f 94/94/94 95/95/95 83/83/83
f 96/96/96 97/97/97 85/85/85
f 96/96/96 85/85/85 84/84/84
f 98/98/98 99/99/99 87/87/87
f 98/98/98 87/87/87 86/86/86
f 100/100/100 101/101/101 89/89/89
f 100/100/100 89/89/89 88/88/88
f 102/102/102 103/103/103 91/91/91
f 102/102/102 91/91/91 90/90/90
f 104/104/104 105/105/105 93/93/93
f 104/104/104 93/93/93 92/92/92
f 106/106/106 107/107/107 95/95/95
f 106/106/106 95/95/95 94/94/94
f 108/108/108 109/109/109 97/97/97
f 108/108/108 97/97/97 96/96/96
f 66/66/66 75/75/75 79/79/79
f 75/75/75 66/66/66 65/65/65
f 68/68/68 66/66/66 78/78/78
f 78/78/78 66/66/66 79/79/79
f 75/75/75 74/74/74 76/76/76
f 75/75/75 76/76/76 79/79/79
f 78/78/78 77/77/77 80/80/80
f 78/78/78 80/80/80 68/68/68
f 69/69/69 81/81/81 82/82/82
f 70/70/70 83/83/83 71/71/71
f 71/71/71 85/85/85 110/110/110
f 71/71/71 110/110/110 72/72/72
f 74/74/74 87/87/87 88/88/88
f 74/74/74 88/88/88 76/76/76
f 77/77/77 89/89/89 90/90/90
f 77/77/77 90/90/90 80/80/80
f 81/81/81 91/91/91 92/92/92
f 81/81/81 92/92/92 82/82/82
f 83/83/83 93/93/93 94/94/94
f 83/83/83 95/95/95 96/96/96
f 83/83/83 96/96/96 84/84/84
f 85/85/85 97/97/97 111/111/111
f 85/85/85 111/111/111 110/110/110
f 87/87/87 99/99/99 100/100/100
f 87/87/87 100/100/100 88/88/88
f 100/100/100 99/99/99 52/52/52
f 100/100/100 52/52/52 51/51/51
f 52/52/52 99/99/99 98/98/98
f 52/52/52 98/98/98 53/53/53
f 89/89/89 101/101/101 102/102/102
f 89/89/89 102/102/102 90/90/90
f 102/102/102 101/101/101 55/55/55
f 102/102/102 55/55/55 54/54/54
f 55/55/55 101/101/101 100/100/100
f 55/55/55 100/100/100 51/51/51
f 91/91/91 103/103/103 104/104/104
f 91/91/91 104/104/104 92/92/92
f 104/104/104 103/103/103 57/57/57
f 104/104/104 57/57/57 56/56/56
f 57/57/57 103/103/103 102/102/102
f 57/57/57 102/102/102 54/54/54
f 93/93/93 105/105/105 106/106/106
f 93/93/93 106/106/106 94/94/94
f 106/106/106 105/105/105 59/59/59
f 106/106/106 59/59/59 58/58/58
f 59/59/59 105/105/105 104/104/104
f 59/59/59 104/104/104 56/56/56
f 95/95/95 107/107/107 108/108/108
f 95/95/95 108/108/108 96/96/96
f 108/108/108 107/107/107 61/61/61
f 108/108/108 61/61/61 60/60/60
f 61/61/61 107/107/107 106/106/106
f 61/61/61 106/106/106 58/58/58
f 97/97/97 109/109/109 112/112/112
f 97/97/97 112/112/112 111/111/111
f 112/112/112 109/109/109 64/64/64
f 112/112/112 64/64/64 63/63/63
f 64/64/64 109/109/109 108/108/108
f 64/64/64 108/108/108 60/60/60
f 70/70/70 71/71/71 67/67/67
# 196 listed triangle(s).
# 1  Mesh part(s).

# EOF
