# Wavefront Object File.
# Created by Cold Fusion HOD Editor v3.2.3
# Date: 06-17-2009; Time: 03:15:49
# 

# Mesh Part #1
g Part1
usemtl Material_2

v 58.71967 9.251104 -48.09765
vn 0.874869 0.4266199 -0.2293461
vt 0.1160714 0.8285714

v 62.67398 -0.3789525 -44.40978
vn 0.9969888 -1.867539E-07 -0.0775462
vt 0.4642857 0.9142857

v 58.21783 -0.3789529 -52.96458
vn 0.9332972 5.825393E-07 -0.3591052
vt 0.2752105 0.843531

v 58.71967 -10.00901 -48.09765
vn 0.8748688 -0.4266205 -0.229346
vt 0.3785715 0.8285714

v 59.85813 -9.606471 -37.94189
vn 0.8643184 -0.4632235 0.1959021
vt 0.4906468 0.8236198

v 60.25292 -0.3789522 -32.6302
vn 0.924549 2.43925E-07 0.3810631
vt 0.6223905 0.8169905

v 59.85813 8.848567 -37.94189
vn 0.8643185 0.4632233 0.1959021
vt 0.7325886 0.8236198

v 58.71967 9.251104 -48.09765
vn 0.874869 0.4266199 -0.2293461
vt 0.8285715 0.8285714

v 48.84491 16.58401 -50.98104
vn 0.5327833 0.816742 -0.2215276
vt 0 0.725

v 54.14296 7.189831 -56.44349
vn 0.8254397 0.3470144 -0.4452306
vt 0.075 0.8

v 45.70143 11.44251 -60.46001
vn 0.5623694 0.6298633 -0.5357358
vt 5.769629E-02 0.7241142

v 42.15641 -0.3789534 -67.62737
vn 0.6343099 -1.376258E-07 -0.7730789
vt 0.15 0.7218328

v 51.71784 -0.3789531 -61.11948
vn 0.8379199 1.019708E-06 -0.5457932
vt 0.15 0.8

v 54.14296 -7.947736 -56.44349
vn 0.82544 -0.3470137 -0.4452308
vt 0.25 0.8

v 45.70143 -12.20042 -60.46001
vn 0.5623693 -0.6298634 -0.5357357
vt 0.2666366 0.7241142

v 48.84491 -17.34192 -50.98104
vn 0.5327832 -0.816742 -0.2215276
vt 0.35 0.725

v 50.37451 -18.29523 -40.02713
vn 0.5245222 -0.8513169 1.165947E-02
vt 0.4314449 0.723274

v 51.00646 -16.48216 -31.01373
vn 0.6603332 -0.6482443 0.3791299
vt 0.5125 0.725

v 51.24537 -0.3789521 -26.66957
vn 0.6689425 2.995169E-07 0.7433141
vt 0.6092467 0.723847

v 51.24537 -0.3789521 -26.66957
vn 0.6689425 2.995169E-07 0.7433141
vt 0.7315067 0.7204435

v 51.00646 15.72425 -31.01373
vn 0.6603332 0.6482443 0.3791299
vt 0.7875001 0.725

v 50.37451 17.53732 -40.02713
vn 0.524523 0.8513165 1.165946E-02
vt 0.8685551 0.723274

v 34.32248 20.70243 -52.46628
vn 0.2424151 0.947168 -0.2100188
vt 0 0.625

v 31.07385 15.30677 -63.5694
vn 0.2777806 0.7736492 -0.5694776
vt 5.013023E-02 0.6235716

v 28.07895 -0.3789537 -72.11073
vn 0.3440723 -3.518447E-07 -0.9389432
vt 0.2 0.625

v 31.07385 -16.06467 -63.5694
vn 0.2777806 -0.7736493 -0.5694776
vt 0.2748047 0.6235716

v 34.32248 -21.46033 -52.46628
vn 0.2424151 -0.947168 -0.2100188
vt 0.35 0.625

v 36.03031 -22.48505 -39.6243
vn 0.2237499 -0.974007 3.530433E-02
vt 0.4248074 0.6235077

v 37.05956 -20.01213 -28.95762
vn 0.28957 -0.860403 0.4193518
vt 0.5 0.625

v 37.08792 -15.18457 -24.37322
vn 0.3061119 -0.4074154 0.8604117
vt 0.5495406 0.6225463

v 37.51769 -0.3789519 -23.2077
vn 0.2479564 -2.966746E-08 0.9687712
vt 0.7 0.625

v 37.08792 14.42667 -24.37322
vn 0.3061119 0.4074152 0.8604117
vt 0.7504594 0.6225463

v 37.05956 19.25423 -28.95762
vn 0.28957 0.8604029 0.4193518
vt 0.8000001 0.625

v 36.03031 21.72714 -39.6243
vn 0.2237499 0.974007 3.530433E-02
vt 0.8751926 0.6235077

v 15.61384 23.01232 -52.85672
vn 9.388184E-02 0.9770622 -0.1911431
vt 0 0.55

v 13.83348 17.35087 -64.38623
vn 0.102584 0.8171797 -0.5671806
vt 4.735873E-02 0.5489794

v 12.10286 -0.378954 -74.00454
vn 0.128089 -1.19755E-07 -0.9917626
vt 0.15 0.5494387

v 13.83348 -18.10877 -64.38623
vn 0.102584 -0.8171796 -0.5671807
vt 0.2789619 0.5489794

v 15.61384 -23.77023 -52.85672
vn 9.388184E-02 -0.9770622 -0.1911431
vt 0.35 0.55

v 16.54523 -24.75047 -39.04701
vn 8.921239E-02 -0.994602 5.299161E-02
vt 0.426259 0.5492829

v 17.16876 -21.96555 -27.85795
vn 8.784441E-02 -0.9141141 0.3958267
vt 0.5 0.55

v 17.08255 -16.32326 -23.19611
vn 7.821108E-02 -0.4983684 0.8634304
vt 0.5498729 0.5487777

v 17.19356 -0.3789521 -22.03764
vn 6.105505E-02 6.003022E-08 0.9981344
vt 0.65 0.5495261

v 17.08255 15.56536 -23.19611
vn 7.821108E-02 0.4983682 0.8634304
vt 0.7501271 0.5487777

v 17.16876 21.20765 -27.85795
vn 8.784524E-02 0.9141141 0.3958267
vt 0.8000001 0.55

v 16.54523 23.99256 -39.04701
vn 8.921239E-02 0.994602 5.299161E-02
vt 0.873741 0.549283

v 48.84491 16.58401 -50.98104
vn 0.5327833 0.816742 -0.2215276
vt 0.9500001 0.725

v 28.07895 -0.3789537 -72.11073
vn 0.3440723 -3.518447E-07 -0.9389432
vt 0.125 0.6243627

v 37.51769 -0.3789519 -23.2077
vn 0.2479564 -2.966746E-08 0.9687712
vt 0.625 0.6254027

v 34.32248 20.70243 -52.46628
vn 0.2424151 0.947168 -0.2100188
vt 0.9500001 0.625

v -0.5199899 -0.378954 -74.42245
vn 0 -2.402959E-07 -1
vt 0.15 0.5

v -0.5199899 17.61751 -64.9453
vn 0 0.8237628 -0.5669346
vt 0.05 0.5

v -0.5199906 23.64143 -53.07355
vn 0 0.9822358 -0.1876509
vt 0 0.5

v -0.5199899 -24.39933 -53.07355
vn 0 -0.9822358 -0.1876509
vt 0.35 0.5

v -0.5199899 -18.37542 -64.9453
vn 0 -0.8237628 -0.5669346
vt 0.275 0.5

v -0.5199899 -22.60045 -27.69418
vn 0 -0.9130678 0.4078077
vt 0.5 0.5

v -0.5199906 -25.47419 -39.10944
vn 0 -0.9983151 5.802562E-02
vt 0.425 0.5

v -0.5199899 -0.3789521 -21.82526
vn 0 2.703329E-07 1
vt 0.65 0.5

v -0.5199906 -16.77417 -22.97035
vn 0 -0.4894598 0.8720258
vt 0.55 0.5

v -0.5199899 21.84254 -27.69418
vn 0 0.9130679 0.4078077
vt 0.8000001 0.5

v -0.5199906 16.01627 -22.97035
vn 0 0.4894603 0.8720256
vt 0.7500001 0.5

v 15.61384 23.01232 -52.85672
vn 9.388184E-02 0.9770622 -0.1911431
vt 0.9500001 0.55

v -0.5199906 23.64143 -53.07355
vn 0 0.9822358 -0.1876509
vt 0.9500001 0.5

v -0.5199906 24.71629 -39.10944
vn 0 0.9983151 5.802562E-02
vt 0.8750001 0.5

v -59.75965 9.251105 -48.09768
vn -0.874869 0.4266197 -0.2293461
vt 0.1160714 0.8285714

v -59.25782 -0.3789532 -52.96458
vn -0.9332972 -5.825393E-07 -0.3591052
vt 0.2752105 0.843531

v -63.71397 -0.3789521 -44.40978
vn -0.9969888 -4.435406E-07 -0.0775462
vt 0.4642857 0.9142857

v -59.75965 -10.00901 -48.09765
vn -0.8748689 -0.4266204 -0.229346
vt 0.3785715 0.8285714

v -60.89811 -9.606471 -37.94189
vn -0.8643187 -0.4632232 0.1959021
vt 0.4906468 0.8236198

v -61.2929 -0.3789521 -32.6302
vn -0.924549 4.878499E-08 0.3810631
vt 0.6223905 0.8169905

v -60.89811 8.848567 -37.94189
vn -0.8643185 0.4632232 0.1959021
vt 0.7325886 0.8236198

v -59.75965 9.251105 -48.09768
vn -0.874869 0.4266197 -0.2293461
vt 0.8285715 0.8285714

v -49.88489 16.58401 -50.98104
vn -0.5327834 0.8167419 -0.2215276
vt 0 0.725

v -46.74141 11.44251 -60.46001
vn -0.5623695 0.6298631 -0.5357359
vt 5.769629E-02 0.7241142

v -55.18295 7.18983 -56.44349
vn -0.8254398 0.3470141 -0.4452307
vt 0.075 0.8

v -43.19639 -0.3789532 -67.62737
vn -0.6343099 -2.752515E-07 -0.7730789
vt 0.15 0.7218328

v -46.74142 -12.20042 -60.46001
vn -0.5623693 -0.6298634 -0.5357357
vt 0.2666366 0.7241142

v -55.18295 -7.947737 -56.44349
vn -0.8254398 -0.3470143 -0.4452307
vt 0.25 0.8

v -52.75783 -0.3789532 -61.11948
vn -0.8379199 3.31405E-07 -0.5457932
vt 0.15 0.8

v -49.88489 -17.34192 -50.98104
vn -0.5327833 -0.816742 -0.2215276
vt 0.35 0.725

v -51.41449 -18.29523 -40.02713
vn -0.524523 -0.8513165 1.165946E-02
vt 0.4314449 0.723274

v -52.04644 -16.48216 -31.01373
vn -0.6603336 -0.6482439 0.3791297
vt 0.5125 0.725

v -52.28535 -0.3789521 -26.66957
vn -0.6689425 -2.722881E-08 0.7433141
vt 0.65 0.7227125

v -52.04644 15.72426 -31.01373
vn -0.6603339 0.6482438 0.3791298
vt 0.7875001 0.725

v -51.4145 17.53732 -40.02713
vn -0.524523 0.8513165 1.165946E-02
vt 0.8685551 0.723274

v -35.36246 20.70243 -52.46628
vn -0.2424151 0.9471678 -0.2100188
vt 0 0.625

v -32.11383 15.30677 -63.5694
vn -0.2777806 0.7736492 -0.5694776
vt 5.013023E-02 0.6235716

v -29.11894 -0.3789538 -72.11073
vn -0.3440723 -4.398059E-07 -0.9389432
vt 0.15 0.6245751

v -32.11383 -16.06467 -63.5694
vn -0.2777805 -0.7736495 -0.5694774
vt 0.2748047 0.6235716

v -35.36245 -21.46033 -52.46628
vn -0.2424151 -0.947168 -0.2100188
vt 0.35 0.625

v -37.07029 -22.48505 -39.6243
vn -0.2237499 -0.974007 3.530433E-02
vt 0.4248074 0.6235077

v -38.09954 -20.01214 -28.95762
vn -0.28957 -0.8604031 0.4193518
vt 0.5 0.625

v -38.12791 -15.18457 -24.37322
vn -0.3061119 -0.4074153 0.8604117
vt 0.5495406 0.6225463

v -38.55767 -0.3789517 -23.2077
vn -0.2479564 -6.823516E-07 0.9687712
vt 0.65 0.6252685

v -38.12791 14.42667 -24.37322
vn -0.3061119 0.407415 0.8604118
vt 0.7504594 0.6225463

v -38.09954 19.25423 -28.95762
vn -0.2895699 0.8604031 0.4193517
vt 0.8000001 0.625

v -37.07029 21.72714 -39.6243
vn -0.2237499 0.974007 3.530433E-02
vt 0.8751926 0.6235077

v -16.65382 23.01232 -52.85672
vn -9.388105E-02 0.9770622 -0.1911432
vt 0 0.55

v -14.87346 17.35087 -64.38623
vn -0.102584 0.8171797 -0.5671807
vt 4.735873E-02 0.5489794

v -13.14284 -0.378954 -74.00454
vn -0.128089 -3.293261E-07 -0.9917626
vt 0.15 0.5494387

v -14.87346 -18.10877 -64.38623
vn -0.102584 -0.8171797 -0.5671806
vt 0.2789619 0.5489794

v -16.65382 -23.77023 -52.85672
vn -9.388184E-02 -0.9770622 -0.1911431
vt 0.35 0.55

v -17.58521 -24.75047 -39.04701
vn -8.921239E-02 -0.994602 5.299161E-02
vt 0.426259 0.5492829

v -18.20874 -21.96555 -27.85795
vn -8.784524E-02 -0.9141141 0.3958267
vt 0.5 0.55

v -18.12253 -16.32326 -23.19611
vn -7.821106E-02 -0.4983685 0.8634303
vt 0.5498729 0.5487777

v -18.23354 -0.3789521 -22.03764
vn -6.105505E-02 -4.502266E-07 0.9981344
vt 0.65 0.5495261

v -18.12253 15.56536 -23.19611
vn -7.821104E-02 0.498369 0.86343
vt 0.7501271 0.5487777

v -18.20874 21.20765 -27.85795
vn -8.784437E-02 0.9141142 0.3958265
vt 0.8000001 0.55

v -17.58521 23.99256 -39.04701
vn -8.921239E-02 0.994602 5.299161E-02
vt 0.873741 0.549283

v -49.88489 16.58401 -50.98104
vn -0.5327834 0.8167419 -0.2215276
vt 0.9500001 0.725

v -35.36246 20.70243 -52.46628
vn -0.2424151 0.9471678 -0.2100188
vt 0.9500001 0.625

v -16.65382 23.01232 -52.85672
vn -9.388105E-02 0.9770622 -0.1911432
vt 0.9500001 0.55
# 112 vertice(s) in part #1.

f 1/1/1 2/2/2 3/3/3
f 3/3/3 2/2/2 4/4/4
f 4/4/4 2/2/2 5/5/5
f 5/5/5 2/2/2 6/6/6
f 7/7/7 2/2/2 8/8/8
f 9/9/9 1/1/1 10/10/10
f 9/9/9 10/10/10 11/11/11
f 12/12/12 13/13/13 14/14/14
f 12/12/12 14/14/14 15/15/15
f 16/16/16 4/4/4 5/5/5
f 16/16/16 5/5/5 17/17/17
f 18/18/18 5/5/5 19/19/19
f 19/19/19 5/5/5 6/6/6
f 20/20/20 7/7/7 21/21/21
f 21/21/21 7/7/7 22/22/22
f 23/23/23 9/9/9 11/11/11
f 23/23/23 11/11/11 24/24/24
f 25/25/25 12/12/12 15/15/15
f 25/25/25 15/15/15 26/26/26
f 27/27/27 16/16/16 17/17/17
f 27/27/27 17/17/17 28/28/28
f 29/29/29 18/18/18 19/19/19
f 29/29/29 19/19/19 30/30/30
f 31/31/31 20/20/20 32/32/32
f 33/33/33 21/21/21 22/22/22
f 33/33/33 22/22/22 34/34/34
f 35/35/35 23/23/23 24/24/24
f 35/35/35 24/24/24 36/36/36
f 37/37/37 25/25/25 26/26/26
f 37/37/37 26/26/26 38/38/38
f 39/39/39 27/27/27 28/28/28
f 39/39/39 28/28/28 40/40/40
f 41/41/41 29/29/29 30/30/30
f 41/41/41 30/30/30 42/42/42
f 43/43/43 31/31/31 32/32/32
f 43/43/43 32/32/32 44/44/44
f 45/45/45 33/33/33 34/34/34
f 45/45/45 34/34/34 46/46/46
f 3/3/3 13/13/13 10/10/10
f 10/10/10 1/1/1 3/3/3
f 4/4/4 14/14/14 3/3/3
f 14/14/14 13/13/13 3/3/3
f 10/10/10 13/13/13 12/12/12
f 10/10/10 12/12/12 11/11/11
f 14/14/14 4/4/4 16/16/16
f 14/14/14 16/16/16 15/15/15
f 5/5/5 18/18/18 17/17/17
f 6/6/6 7/7/7 20/20/20
f 7/7/7 8/8/8 47/47/47
f 7/7/7 47/47/47 22/22/22
f 11/11/11 12/12/12 48/48/48
f 11/11/11 48/48/48 24/24/24
f 15/15/15 16/16/16 27/27/27
f 15/15/15 27/27/27 26/26/26
f 17/17/17 18/18/18 29/29/29
f 17/17/17 29/29/29 28/28/28
f 19/19/19 49/49/49 30/30/30
f 20/20/20 21/21/21 33/33/33
f 20/20/20 33/33/33 32/32/32
f 22/22/22 47/47/47 50/50/50
f 22/22/22 50/50/50 34/34/34
f 24/24/24 48/48/48 37/37/37
f 24/24/24 37/37/37 36/36/36
f 37/37/37 51/51/51 52/52/52
f 37/37/37 52/52/52 36/36/36
f 52/52/52 53/53/53 35/35/35
f 52/52/52 35/35/35 36/36/36
f 26/26/26 27/27/27 39/39/39
f 26/26/26 39/39/39 38/38/38
f 39/39/39 54/54/54 55/55/55
f 39/39/39 55/55/55 38/38/38
f 55/55/55 51/51/51 37/37/37
f 55/55/55 37/37/37 38/38/38
f 28/28/28 29/29/29 41/41/41
f 28/28/28 41/41/41 40/40/40
f 41/41/41 56/56/56 57/57/57
f 41/41/41 57/57/57 40/40/40
f 57/57/57 54/54/54 39/39/39
f 57/57/57 39/39/39 40/40/40
f 30/30/30 49/49/49 43/43/43
f 30/30/30 43/43/43 42/42/42
f 43/43/43 58/58/58 59/59/59
f 43/43/43 59/59/59 42/42/42
f 59/59/59 56/56/56 41/41/41
f 59/59/59 41/41/41 42/42/42
f 32/32/32 33/33/33 45/45/45
f 32/32/32 45/45/45 44/44/44
f 45/45/45 60/60/60 61/61/61
f 45/45/45 61/61/61 44/44/44
f 61/61/61 58/58/58 43/43/43
f 61/61/61 43/43/43 44/44/44
f 34/34/34 50/50/50 62/62/62
f 34/34/34 62/62/62 46/46/46
f 62/62/62 63/63/63 64/64/64
f 62/62/62 64/64/64 46/46/46
f 64/64/64 60/60/60 45/45/45
f 64/64/64 45/45/45 46/46/46
f 6/6/6 2/2/2 7/7/7
f 65/65/65 66/66/66 67/67/67
f 66/66/66 68/68/68 67/67/67
f 68/68/68 69/69/69 67/67/67
f 69/69/69 70/70/70 67/67/67
f 71/71/71 72/72/72 67/67/67
f 73/73/73 74/74/74 75/75/75
f 73/73/73 75/75/75 65/65/65
f 76/76/76 77/77/77 78/78/78
f 76/76/76 78/78/78 79/79/79
f 80/80/80 81/81/81 69/69/69
f 80/80/80 69/69/69 68/68/68
f 82/82/82 83/83/83 69/69/69
f 83/83/83 70/70/70 69/69/69
f 83/83/83 84/84/84 71/71/71
f 84/84/84 85/85/85 71/71/71
f 86/86/86 87/87/87 74/74/74
f 86/86/86 74/74/74 73/73/73
f 88/88/88 89/89/89 77/77/77
f 88/88/88 77/77/77 76/76/76
f 90/90/90 91/91/91 81/81/81
f 90/90/90 81/81/81 80/80/80
f 92/92/92 93/93/93 83/83/83
f 92/92/92 83/83/83 82/82/82
f 94/94/94 95/95/95 83/83/83
f 96/96/96 97/97/97 85/85/85
f 96/96/96 85/85/85 84/84/84
f 98/98/98 99/99/99 87/87/87
f 98/98/98 87/87/87 86/86/86
f 100/100/100 101/101/101 89/89/89
f 100/100/100 89/89/89 88/88/88
f 102/102/102 103/103/103 91/91/91
f 102/102/102 91/91/91 90/90/90
f 104/104/104 105/105/105 93/93/93
f 104/104/104 93/93/93 92/92/92
f 106/106/106 107/107/107 95/95/95
f 106/106/106 95/95/95 94/94/94
f 108/108/108 109/109/109 97/97/97
f 108/108/108 97/97/97 96/96/96
f 66/66/66 75/75/75 79/79/79
f 75/75/75 66/66/66 65/65/65
f 68/68/68 66/66/66 78/78/78
f 78/78/78 66/66/66 79/79/79
f 75/75/75 74/74/74 76/76/76
f 75/75/75 76/76/76 79/79/79
f 78/78/78 77/77/77 80/80/80
f 78/78/78 80/80/80 68/68/68
f 69/69/69 81/81/81 82/82/82
f 70/70/70 83/83/83 71/71/71
f 71/71/71 85/85/85 110/110/110
f 71/71/71 110/110/110 72/72/72
f 74/74/74 87/87/87 88/88/88
f 74/74/74 88/88/88 76/76/76
f 77/77/77 89/89/89 90/90/90
f 77/77/77 90/90/90 80/80/80
f 81/81/81 91/91/91 92/92/92
f 81/81/81 92/92/92 82/82/82
f 83/83/83 93/93/93 94/94/94
f 83/83/83 95/95/95 96/96/96
f 83/83/83 96/96/96 84/84/84
f 85/85/85 97/97/97 111/111/111
f 85/85/85 111/111/111 110/110/110
f 87/87/87 99/99/99 100/100/100
f 87/87/87 100/100/100 88/88/88
f 100/100/100 99/99/99 52/52/52
f 100/100/100 52/52/52 51/51/51
f 52/52/52 99/99/99 98/98/98
f 52/52/52 98/98/98 53/53/53
f 89/89/89 101/101/101 102/102/102
f 89/89/89 102/102/102 90/90/90
f 102/102/102 101/101/101 55/55/55
f 102/102/102 55/55/55 54/54/54
f 55/55/55 101/101/101 100/100/100
f 55/55/55 100/100/100 51/51/51
f 91/91/91 103/103/103 104/104/104
f 91/91/91 104/104/104 92/92/92
f 104/104/104 103/103/103 57/57/57
f 104/104/104 57/57/57 56/56/56
f 57/57/57 103/103/103 102/102/102
f 57/57/57 102/102/102 54/54/54
f 93/93/93 105/105/105 106/106/106
f 93/93/93 106/106/106 94/94/94
f 106/106/106 105/105/105 59/59/59
f 106/106/106 59/59/59 58/58/58
f 59/59/59 105/105/105 104/104/104
f 59/59/59 104/104/104 56/56/56
f 95/95/95 107/107/107 108/108/108
f 95/95/95 108/108/108 96/96/96
f 108/108/108 107/107/107 61/61/61
f 108/108/108 61/61/61 60/60/60
f 61/61/61 107/107/107 106/106/106
f 61/61/61 106/106/106 58/58/58
f 97/97/97 109/109/109 112/112/112
f 97/97/97 112/112/112 111/111/111
f 112/112/112 109/109/109 64/64/64
f 112/112/112 64/64/64 63/63/63
f 64/64/64 109/109/109 108/108/108
f 64/64/64 108/108/108 60/60/60
f 70/70/70 71/71/71 67/67/67
# 196 listed triangle(s).
# 1  Mesh part(s).

# EOF
