# Wavefront Object File.
# Created by Cold Fusion HOD Editor v3.0.7
# Date: 05-02-2008; Time: 16:33:08
# 

# Mesh Part #1
g Part1
usemtl Material_0

v 8.169951 12.51544 18.12496
vn 5.443418E-08 0 1
vt 9.770679E-02 0.6517612

v -1.941907 12.51544 18.12496
vn 5.443418E-08 0 1
vt 0.3442184 0.6517612

v -1.941907 -12.52979 18.12496
vn 5.443418E-08 0 1
vt 0.3442184 1.339382E-02

v 8.169951 -12.52979 18.12496
vn 5.443418E-08 0 1
vt 9.770679E-02 1.339382E-02

v -1.941907 12.51544 18.12496
vn -1 1.571936E-10 0
vt 0.3542019 0.6517611

v -1.941907 12.51544 -3.043425
vn -1 1.571936E-10 0
vt 0.989572 0.6517612

v -1.941907 -12.52979 -3.043425
vn -1 1.571936E-10 0
vt 0.989572 1.339376E-02

v -1.941907 -12.52979 18.12496
vn -1 1.571936E-10 0
vt 0.3542019 1.339382E-02

v -1.941907 12.51544 -3.043425
vn 8.971992E-10 0 -1
vt 0.1975305 0.6537476

v 8.169951 12.51544 -3.043425
vn 8.971992E-10 0 -1
vt 5.332756E-02 0.6537474

v 8.169951 -12.52979 -3.043425
vn 8.971992E-10 0 -1
vt 5.332756E-02 0.9965242

v -1.941907 -12.52979 -3.043425
vn 8.971992E-10 0 -1
vt 0.1975303 0.9965241

v 8.169951 12.51544 -3.043425
vn 1 2.924975E-09 0
vt 0.989572 0.6517612

v 8.169951 12.51544 18.12496
vn 1 2.924975E-09 0
vt 0.3542019 0.6517611

v 8.169951 -12.52979 18.12496
vn 1 2.924975E-09 0
vt 0.3542019 1.339382E-02

v 8.169951 -12.52979 -3.043425
vn 1 2.924975E-09 0
vt 0.989572 1.339376E-02

v 8.169951 -12.52979 18.12496
vn 0 -1 -9.611804E-10
vt 0.355792 0.7817619

v -1.941907 -12.52979 18.12496
vn 0 -1 -9.611804E-10
vt 0.355792 0.8519263

v -1.941907 -12.52979 -3.043425
vn 0 -1 -9.611804E-10
vt 0.9880643 0.8519263

v 8.169951 -12.52979 -3.043425
vn 0 -1 -9.611804E-10
vt 0.9880643 0.7817619

v 8.169951 12.51544 -3.043425
vn 0 1 6.008473E-09
vt 0.9878042 0.7659326

v -1.941907 12.51544 -3.043425
vn 0 1 6.008473E-09
vt 0.9878042 0.6567411

v -1.941907 12.51544 18.12496
vn 0 1 6.008473E-09
vt 0.3555148 0.6567411

v 8.169951 12.51544 18.12496
vn 0 1 6.008473E-09
vt 0.3555148 0.7659326
# 24 vertice(s) in part #1.

f 1/1/1 2/2/2 3/3/3
f 1/1/1 3/3/3 4/4/4
f 5/5/5 6/6/6 7/7/7
f 5/5/5 7/7/7 8/8/8
f 9/9/9 10/10/10 11/11/11
f 9/9/9 11/11/11 12/12/12
f 13/13/13 14/14/14 15/15/15
f 13/13/13 15/15/15 16/16/16
f 17/17/17 18/18/18 19/19/19
f 17/17/17 19/19/19 20/20/20
f 21/21/21 22/22/22 23/23/23
f 21/21/21 23/23/23 24/24/24
# 12 listed triangle(s).
# 1  Mesh part(s).

# EOF
